<svg width="24" height="24" viewBox="0 0 24 24" fill="none" xmlns="http://www.w3.org/2000/svg">
<rect width="24" height="24" fill="white"/>
<path fill-rule="evenodd" clip-rule="evenodd" d="M20.2187 9.61513C21.2673 9.41632 22.1822 10.3454 21.9674 11.3908L19.8552 21.6686C19.8074 21.9011 19.6028 22.0679 19.3654 22.0679H7.27472C6.99858 22.0679 6.77472 21.8441 6.77472 21.5679V8.90253C6.77472 8.79396 6.81006 8.68834 6.8754 8.60163L11.8453 2.00612C12.1722 1.96083 12.4805 2.21074 12.4879 2.55524L12.0862 9.25658C12.0277 10.2321 12.9028 11.0021 13.8629 10.8201L20.2187 9.61513ZM13.488 2.56794H12.988L13.4871 2.59786L13.0844 9.31641C13.0649 9.64157 13.3566 9.89825 13.6766 9.83757L20.0324 8.63263C21.7801 8.30129 23.305 9.84968 22.9469 11.5921L20.8347 21.8699C20.6914 22.5674 20.0775 23.0679 19.3654 23.0679H7.27472C6.75764 23.0679 6.30166 22.8063 6.03197 22.4082L5.75425 22.3468L2.56808 21.642C1.65207 21.4394 1 20.6274 1 19.6892V11.3954C1 10.4808 1.62035 9.68276 2.50664 9.45716L5.75425 8.6305L5.80188 8.61837C5.84495 8.39516 5.93845 8.18337 6.07675 7.99982L11.1501 1.26704L11.2416 1.14558L11.3853 1.09566L11.407 1.08811C12.425 0.734278 13.488 1.49018 13.488 2.56794ZM2.75332 10.4263L5.75425 9.66238V21.3226L2.78404 20.6656C2.32604 20.5643 2 20.1583 2 19.6892V11.3954C2 10.9381 2.31018 10.5391 2.75332 10.4263Z" fill="#F9A012"/>
</svg>
