<svg width="68" height="67" viewBox="0 0 68 67" fill="none" xmlns="http://www.w3.org/2000/svg">
<path fill-rule="evenodd" clip-rule="evenodd" d="M22.3462 32.7965L25.9114 30.8421L28.513 26.9229C29.9259 24.7944 30.6796 22.2965 30.6796 19.7418V18.9964L31.0284 18.3376C32.0034 16.497 33.9172 16.0121 35.1265 16.019C36.2236 16.0253 38.2499 16.4811 39.1349 18.4446C39.3225 18.7986 39.4937 19.1391 39.6493 19.4726C41.015 22.3986 40.8005 25.5485 40.4295 28.0245H44.2972C45.7531 28.0245 47.5223 28.4183 48.9175 29.258C49.6182 29.6797 50.4861 30.372 51.0101 31.451C51.6052 32.6762 51.5845 34.0535 50.9814 35.2956C50.8503 35.5657 50.6968 35.8174 50.5266 36.0525C50.7492 36.7788 50.7821 37.5387 50.6374 38.2735C50.4916 39.0142 50.187 39.668 49.7807 40.2342C49.9604 40.8912 49.9977 41.6098 49.8409 42.3743C49.6776 43.1705 49.3331 43.8557 48.8771 44.4356C49.0244 45.1207 49.0187 45.8556 48.8114 46.6141C48.2256 48.7577 46.3357 49.9538 44.4283 50.2711L44.1838 50.3117H26.9778L25.3294 49.0379H22.3462V32.7965ZM26.3535 46.0379L28.0019 47.3117H43.936C44.9463 47.1437 45.607 46.6276 45.859 45.9974C46.1568 45.2529 45.884 44.3492 44.9433 43.6721C45.909 43.2919 46.5361 42.7239 46.7972 42.1068C46.8924 41.8818 46.939 41.6503 46.9355 41.419C46.9262 40.7888 46.5458 40.16 45.7675 39.6686C46.8137 39.2268 47.4867 38.5169 47.6726 37.7881C47.7078 37.6502 47.7256 37.5117 47.7251 37.3741C47.7229 36.7219 47.3115 36.0923 46.4085 35.665C47.414 35.0663 48.0143 34.5382 48.2827 33.9854C48.3863 33.7719 48.4377 33.5675 48.4444 33.3731C48.4948 31.9237 46.0656 31.0245 44.2972 31.0245H36.8847L37.3156 28.4913C37.342 28.3362 37.3678 28.1806 37.3928 28.0245C37.7878 25.5615 37.981 22.9913 36.9309 20.7414C36.8518 20.572 36.7663 20.3969 36.6737 20.2144C36.5965 20.0624 36.5144 19.9052 36.4268 19.7418C36.0591 18.7912 34.197 18.7648 33.6796 19.7418C33.6796 20.1018 33.6674 20.4609 33.6433 20.8185C33.6425 20.8304 33.6416 20.8424 33.6408 20.8543C33.4486 23.6077 32.5459 26.272 31.0125 28.5821L28.0019 33.1173L25.3462 34.5731V46.0379H26.3535Z" fill="#F9A012"/>
<path fill-rule="evenodd" clip-rule="evenodd" d="M17.3991 31.4266C17.0961 31.4266 16.5497 32.0869 16.5497 32.4319V48.6842C16.5497 49.0292 17.1834 49.9349 17.4864 49.9349H22.7555C23.0158 49.9349 23.2338 49.7285 23.29 49.4516V32.4319C23.2629 31.9368 23.1279 31.6936 22.7555 31.4236L17.3991 31.4266ZM21.29 33.4244L18.5497 33.4259V47.9349H21.29V33.4244Z" fill="#F9A012"/>
<path fill-rule="evenodd" clip-rule="evenodd" d="M62.578 42.5362C63.5491 39.5878 64.0744 36.4378 64.0744 33.1653C64.0744 29.8929 63.5491 26.7429 62.578 23.7945L65.4274 22.856C66.497 26.1034 67.0744 29.57 67.0744 33.1653C67.0744 36.7606 66.497 40.2273 65.4274 43.4747L62.578 42.5362ZM60.8361 19.6097L63.51 18.2495C60.3232 11.9846 55.1941 6.87432 48.9122 3.70329L47.5603 6.38142C53.2735 9.26537 57.939 13.9145 60.8361 19.6097ZM43.3707 4.6508L44.3027 1.79924C41.0558 0.738035 37.5907 0.165344 33.9975 0.165344C30.4043 0.165344 26.9392 0.738034 23.6923 1.79924L24.6243 4.6508C27.574 3.68674 30.7247 3.16534 33.9975 3.16534C37.2703 3.16534 40.421 3.68674 43.3707 4.6508ZM20.4347 6.38142L19.0828 3.70329C12.8009 6.87432 7.6718 11.9846 4.485 18.2495L7.15893 19.6097C10.056 13.9145 14.7215 9.26536 20.4347 6.38142ZM5.41698 23.7945C4.44589 26.7429 3.92059 29.8929 3.92059 33.1653C3.92059 36.4378 4.44589 39.5878 5.41698 42.5362L2.56755 43.4747C1.49799 40.2273 0.920593 36.7606 0.920593 33.1653C0.920593 29.57 1.49799 26.1034 2.56755 22.856L5.41698 23.7945ZM7.15893 46.721L4.485 48.0812C7.6718 54.346 12.8009 59.4564 19.0828 62.6274L20.4347 59.9493C14.7215 57.0653 10.056 52.4162 7.15893 46.721ZM24.6243 61.6799L23.6923 64.5314C26.9392 65.5927 30.4043 66.1653 33.9975 66.1653C37.5907 66.1653 41.0557 65.5927 44.3027 64.5314L43.3707 61.6799C40.421 62.6439 37.2703 63.1653 33.9975 63.1653C30.7247 63.1653 27.574 62.6439 24.6243 61.6799ZM47.5603 59.9493L48.9122 62.6274C55.1941 59.4564 60.3232 54.346 63.51 48.0812L60.8361 46.721C57.939 52.4162 53.2735 57.0653 47.5603 59.9493Z" fill="#F9A012"/>
</svg>
