<svg width="68" height="67" viewBox="0 0 68 67" fill="none" xmlns="http://www.w3.org/2000/svg">
<path d="M45.2006 31.6011V35.3156L41.5465 36.7036L42.4356 39.1681L46.0897 37.7801C47.0946 37.3984 47.7617 36.4151 47.7617 35.3156V31.6011H45.2006Z" fill="#F9A012"/>
<path fill-rule="evenodd" clip-rule="evenodd" d="M21.0352 32.5812V28.9415H17.7065C17.2458 28.9415 16.8207 28.6877 16.5931 28.2768C16.3655 27.8659 16.3706 27.3612 16.6063 26.9551L23.4447 15.1749C23.676 14.7765 24.0949 14.5326 24.5469 14.5334C24.911 14.534 25.2532 14.6932 25.4927 14.9638H45.2157C45.4375 14.9638 45.6434 15.0815 45.7601 15.275L53.0212 27.3089C53.2853 27.7466 52.9785 28.3117 52.4768 28.3117H50.7748L50.7592 37.0925L52.5922 36.4261C53.121 36.2339 53.8223 36.1792 54.4823 36.5341C55.0267 36.8268 55.4889 37.2335 55.8052 37.828C56.1029 38.3877 56.2141 39.0093 56.2581 39.6276C56.3276 40.6047 55.826 41.4548 55.1218 41.9265L40.8707 51.472C40.4543 51.7508 39.9679 51.8993 39.4707 51.8993H22.8936C22.4204 51.8993 21.9771 51.7676 21.5967 51.5379C21.531 51.8291 21.2767 52.0462 20.9729 52.0462H14.8236C14.47 52.0462 13.7305 51.0937 13.7305 50.7309V33.6385C13.7305 33.2757 14.368 32.5812 14.7217 32.5812L20.9729 32.5782C20.9939 32.5782 21.0147 32.5792 21.0352 32.5812ZM23.5963 32.8388L23.5963 28.2359L27.4405 21.6511L31.1888 27.9953C31.3048 28.1918 31.5124 28.3117 31.7363 28.3117H33.8431V36.1905H30.0115C28.7037 35.6679 28.1103 35.2572 27.1912 34.2901C27.1598 34.257 27.1267 34.2257 27.0921 34.1962C26.5274 33.7154 25.9321 33.3307 25.1823 33.0954C24.6896 32.9408 24.1682 32.8627 23.5963 32.8388ZM36.4042 28.3117V36.2389C36.663 36.2909 36.9267 36.3879 37.1773 36.5446C38.1782 37.1707 38.8332 37.9966 39.0784 39.1593C39.2033 39.7515 39.2121 40.397 39.1554 41.0857L39.674 41.1222L48.1965 38.0241L48.2137 28.3117H36.4042ZM36.5753 39.7152C36.6435 40.0389 36.6488 40.4796 36.5762 41.1377H32.0684C32.0416 41.1377 32.0148 41.1386 31.9881 41.1403C31.209 41.1905 30.5353 41.3115 29.867 41.5947C29.2102 41.8729 28.6336 42.2765 28.0141 42.78L29.6043 44.84C30.1502 44.3963 30.5097 44.1655 30.8443 44.0237C31.1605 43.8898 31.5247 43.8059 32.1099 43.7657H37.6814C37.8638 43.7657 38.0386 43.7262 38.1971 43.6545C38.547 43.6769 38.9788 43.7073 39.4739 43.7422L39.4752 43.7423L39.4987 43.7439C39.8477 43.7685 40.1989 43.7195 40.5295 43.5993L53.3954 38.9222C53.5018 38.9928 53.5352 39.0459 53.5571 39.087C53.6006 39.1688 53.6637 39.3453 53.6978 39.742L39.4707 49.2714H22.8936V35.4635C23.6309 35.4406 24.0911 35.5011 24.4332 35.6084C24.7543 35.7092 25.0433 35.8737 25.4078 36.1775C26.5649 37.3855 27.4668 37.9949 29.0927 38.6436C29.3905 38.7624 29.7019 38.8185 30.0079 38.8185H35.8914C36.3625 39.1236 36.5052 39.3829 36.5753 39.7152ZM28.0372 17.5917L32.8181 25.6838H49.0284L44.1458 17.5917H28.0372ZM19.9597 26.3136H21.733L25.4348 19.9729L24.5409 18.4219L19.9597 26.3136ZM16.2916 49.4183V35.2061H19.0521V49.4183H16.2916Z" fill="#F9A012"/>
<path fill-rule="evenodd" clip-rule="evenodd" d="M62.578 42.6606C63.5491 39.7123 64.0744 36.5622 64.0744 33.2898C64.0744 30.0174 63.5491 26.8673 62.578 23.9189L65.4274 22.9804C66.497 26.2278 67.0744 29.6945 67.0744 33.2898C67.0744 36.8851 66.497 40.3518 65.4274 43.5991L62.578 42.6606ZM60.8361 19.7341L63.51 18.3739C60.3232 12.1091 55.1941 6.99877 48.9122 3.82774L47.5603 6.50587C53.2735 9.38982 57.939 14.0389 60.8361 19.7341ZM43.3707 4.77525L44.3027 1.92369C41.0558 0.862486 37.5907 0.289795 33.9975 0.289795C30.4043 0.289795 26.9392 0.862485 23.6923 1.92369L24.6243 4.77525C27.574 3.81119 30.7247 3.28979 33.9975 3.28979C37.2703 3.28979 40.421 3.81119 43.3707 4.77525ZM20.4347 6.50587L19.0828 3.82774C12.8009 6.99877 7.6718 12.1091 4.485 18.3739L7.15893 19.7341C10.056 14.0389 14.7215 9.38981 20.4347 6.50587ZM5.41698 23.9189C4.44589 26.8673 3.92059 30.0174 3.92059 33.2898C3.92059 36.5622 4.44589 39.7123 5.41698 42.6606L2.56755 43.5991C1.49799 40.3518 0.920593 36.8851 0.920593 33.2898C0.920593 29.6945 1.49799 26.2278 2.56755 22.9804L5.41698 23.9189ZM7.15893 46.8455L4.485 48.2057C7.6718 54.4705 12.8009 59.5808 19.0828 62.7519L20.4347 60.0737C14.7215 57.1898 10.056 52.5407 7.15893 46.8455ZM24.6243 61.8043L23.6923 64.6559C26.9392 65.7171 30.4043 66.2898 33.9975 66.2898C37.5907 66.2898 41.0557 65.7171 44.3027 64.6559L43.3707 61.8043C40.421 62.7684 37.2703 63.2898 33.9975 63.2898C30.7247 63.2898 27.574 62.7684 24.6243 61.8043ZM47.5603 60.0737L48.9122 62.7519C55.1941 59.5808 60.3232 54.4705 63.51 48.2057L60.8361 46.8455C57.939 52.5407 53.2735 57.1898 47.5603 60.0737Z" fill="#F9A012"/>
</svg>
