<svg width="68" height="67" viewBox="0 0 68 67" fill="none" xmlns="http://www.w3.org/2000/svg">
<path fill-rule="evenodd" clip-rule="evenodd" d="M47.5965 19.484L50.7726 25.9781L57.9052 26.9681L52.7131 31.9178L53.9949 39.0078L47.4732 35.612L48.5734 33.499L50.7864 34.6513L50.1405 31.0789L52.6892 28.6492L49.1895 28.1634L47.6369 24.989L46.616 27.1566L44.4608 26.1415L47.5965 19.484Z" fill="#F9A012"/>
<path fill-rule="evenodd" clip-rule="evenodd" d="M20.3985 19.484L17.2224 25.9781L10.0898 26.9681L15.2819 31.9178L14.0001 39.0078L20.5218 35.612L19.4216 33.499L17.2086 34.6513L17.8545 31.0789L15.3058 28.6492L18.8055 28.1634L20.3581 24.989L21.379 27.1566L23.5342 26.1415L20.3985 19.484Z" fill="#F9A012"/>
<path fill-rule="evenodd" clip-rule="evenodd" d="M34.0364 17.3593L39.2094 27.7407L50.702 29.3103L42.3184 37.4648L44.3354 48.8333L34.0564 43.4661L23.7982 48.802L25.7161 37.4772L17.2617 29.2985L28.9704 27.738L34.0364 17.3593ZM30.551 29.9307L22.4566 31.0095L28.2745 36.6376L26.9465 44.4791L34.0585 40.7797L41.1434 44.4791L39.7522 36.6376L45.5384 31.0095L37.6389 29.9307L34.0585 22.7451L30.551 29.9307Z" fill="#F9A012"/>
<path fill-rule="evenodd" clip-rule="evenodd" d="M62.578 42.4672C63.5491 39.5188 64.0744 36.3687 64.0744 33.0963C64.0744 29.8239 63.5491 26.6738 62.578 23.7255L65.4274 22.787C66.497 26.0343 67.0744 29.501 67.0744 33.0963C67.0744 36.6916 66.497 40.1583 65.4274 43.4057L62.578 42.4672ZM60.8361 19.5406L63.51 18.1804C60.3232 11.9156 55.1941 6.80529 48.9122 3.63426L47.5603 6.31239C53.2735 9.19633 57.939 13.8454 60.8361 19.5406ZM43.3707 4.58177L44.3027 1.73021C41.0558 0.669004 37.5907 0.0963135 33.9975 0.0963135C30.4043 0.0963135 26.9392 0.669003 23.6923 1.73021L24.6243 4.58177C27.574 3.61771 30.7247 3.09631 33.9975 3.09631C37.2703 3.09631 40.421 3.61771 43.3707 4.58177ZM20.4347 6.31239L19.0828 3.63426C12.8009 6.80529 7.6718 11.9156 4.485 18.1804L7.15893 19.5406C10.056 13.8454 14.7215 9.19633 20.4347 6.31239ZM5.41698 23.7255C4.44589 26.6738 3.92059 29.8239 3.92059 33.0963C3.92059 36.3687 4.44589 39.5188 5.41698 42.4672L2.56755 43.4057C1.49799 40.1583 0.920593 36.6916 0.920593 33.0963C0.920593 29.501 1.49799 26.0343 2.56755 22.787L5.41698 23.7255ZM7.15893 46.652L4.485 48.0122C7.6718 54.277 12.8009 59.3873 19.0828 62.5584L20.4347 59.8802C14.7215 56.9963 10.056 52.3472 7.15893 46.652ZM24.6243 61.6109L23.6923 64.4624C26.9392 65.5236 30.4043 66.0963 33.9975 66.0963C37.5907 66.0963 41.0557 65.5236 44.3027 64.4624L43.3707 61.6109C40.421 62.5749 37.2703 63.0963 33.9975 63.0963C30.7247 63.0963 27.574 62.5749 24.6243 61.6109ZM47.5603 59.8802L48.9122 62.5584C55.1941 59.3873 60.3232 54.277 63.51 48.0122L60.8361 46.652C57.939 52.3472 53.2735 56.9963 47.5603 59.8802Z" fill="#F9A012"/>
</svg>
