<svg width="22" height="23" viewBox="0 0 22 23" fill="none" xmlns="http://www.w3.org/2000/svg">
<path fill-rule="evenodd" clip-rule="evenodd" d="M19.2187 8.61513C20.2673 8.41632 21.1822 9.34536 20.9674 10.3908L18.8552 20.6686C18.8074 20.9011 18.6028 21.0679 18.3654 21.0679H6.27472C5.99858 21.0679 5.77472 20.8441 5.77472 20.5679V7.90253C5.77472 7.79396 5.81006 7.68834 5.8754 7.60163L10.8453 1.00612C11.1722 0.960829 11.4805 1.21074 11.4879 1.55524L11.0862 8.25658C11.0277 9.23207 11.9028 10.0021 12.8629 9.82007L19.2187 8.61513ZM12.488 1.56794H11.988L12.4871 1.59786L12.0844 8.31641C12.0649 8.64157 12.3566 8.89825 12.6766 8.83757L19.0324 7.63263C20.7801 7.30129 22.305 8.84968 21.9469 10.5921L19.8347 20.8699C19.6914 21.5674 19.0775 22.0679 18.3654 22.0679H6.27472C5.75764 22.0679 5.30166 21.8063 5.03197 21.4082L4.75425 21.3468L1.56808 20.642C0.652074 20.4394 0 19.6274 0 18.6892V10.3954C0 9.4808 0.620354 8.68276 1.50664 8.45716L4.75425 7.6305L4.80188 7.61837C4.84495 7.39516 4.93845 7.18337 5.07675 6.99982L10.1501 0.26704L10.2416 0.145584L10.3853 0.0956564L10.407 0.0881124C11.425 -0.265722 12.488 0.490181 12.488 1.56794ZM1.75332 9.42626L4.75425 8.66238V20.3226L1.78404 19.6656C1.32604 19.5643 1 19.1583 1 18.6892V10.3954C1 9.93808 1.31018 9.53906 1.75332 9.42626Z" fill="#F9A012"/>
</svg>
