<svg width="68" height="67" viewBox="0 0 68 67" fill="none" xmlns="http://www.w3.org/2000/svg">
<path fill-rule="evenodd" clip-rule="evenodd" d="M43.4925 48.6762C43.5837 45.3671 43.5677 43.4544 43.3542 41.7821C43.2205 40.7353 42.8465 39.7359 42.2447 38.9118C40.7515 36.8669 39.1325 36.1014 36.0328 35.5507C34.5188 36.4045 33.5295 36.4421 31.4722 35.5507C29.3774 35.9415 28.0073 36.5175 26.7187 37.6641C25.091 39.1124 24.3539 41.4354 24.3046 43.7378C24.2685 45.4238 24.3483 46.8165 24.5041 48.6762L27.2858 50.049L27.8287 48.1405L28.3696 50.4579C28.692 50.5686 29.0023 50.6716 29.3023 50.7666C32.8532 51.892 34.9636 51.9162 38.5441 50.7407C38.811 50.6531 39.086 50.5589 39.3704 50.4579L40.0257 48.1405L40.6842 50.4579L43.4925 48.6762ZM41.4251 45.2511L40.0207 40.3089L37.679 48.5903C36.1182 49.0857 34.9711 49.2893 33.8772 49.2851C32.7947 49.2809 31.6611 49.0729 30.1239 48.5997L28.0296 39.6278L26.4237 45.2729C26.4128 44.7894 26.4123 44.3054 26.4233 43.7927C26.4631 41.9345 27.0551 40.3634 28.0515 39.4768C28.872 38.7467 29.7514 38.2975 31.2789 37.9603C32.1849 38.3122 33.0647 38.5426 33.9693 38.5365C34.8417 38.5306 35.607 38.3069 36.3272 37.9726C37.4525 38.203 38.225 38.457 38.8256 38.7735C39.4836 39.1203 40.019 39.5866 40.5924 40.3718C40.9388 40.8462 41.1711 41.4461 41.2555 42.1064C41.3654 42.9674 41.4187 43.926 41.4251 45.2511Z" fill="#F9A012"/>
<path fill-rule="evenodd" clip-rule="evenodd" d="M33.9205 32.5765C35.5014 32.5765 37.1905 30.9008 37.1905 28.2476C37.1905 25.5944 35.5014 23.9188 33.9205 23.9188C32.3396 23.9188 30.6505 25.5944 30.6505 28.2476C30.6505 30.9008 32.3396 32.5765 33.9205 32.5765ZM33.9205 34.9079C36.8969 34.9079 39.3098 31.926 39.3098 28.2476C39.3098 24.5693 36.8969 21.5874 33.9205 21.5874C30.9441 21.5874 28.5312 24.5693 28.5312 28.2476C28.5312 31.926 30.9441 34.9079 33.9205 34.9079Z" fill="#F9A012"/>
<path fill-rule="evenodd" clip-rule="evenodd" d="M44.6221 29.5051L44.9664 29.6543C45.9516 30.0812 46.5637 30.231 47.0556 30.2277C47.5219 30.2245 47.9792 30.0828 48.6553 29.7015L48.9646 29.5271L49.3077 29.5881C50.8932 29.8698 52.1901 30.2204 53.3049 30.8078C54.4442 31.4082 55.3435 32.2289 56.1767 33.37C56.9062 34.369 57.3511 35.5681 57.5094 36.8082C57.7369 38.5891 57.7488 40.5911 57.6576 43.8997L57.6384 44.5969L53.9104 46.6394L53.5219 45.8358L53.4253 46.5341L52.8018 46.7554C50.8748 47.4396 49.3027 47.847 47.7596 47.9464C46.2053 48.0466 44.7375 47.831 43.0181 47.3462L43.5442 45.0878C45.1189 45.5317 46.3601 45.7012 47.6357 45.619C48.7738 45.5457 49.9837 45.2693 51.5283 44.7518L52.3899 38.5294L54.8127 43.5405L55.5573 43.1325C55.6266 40.2566 55.5959 38.5828 55.4107 37.1325C55.3017 36.2789 54.9985 35.4793 54.5245 34.83C53.8645 33.9262 53.2078 33.3417 52.3893 32.9104C51.609 32.4993 50.6406 32.2052 49.2998 31.9503C48.5773 32.3222 47.8711 32.5536 47.0687 32.559C46.2732 32.5644 45.4653 32.3464 44.5432 31.972C43.1606 32.4573 42.283 32.9016 41.5665 33.5369C40.7937 34.2222 40.1234 35.2064 39.2714 36.9583L37.4027 35.8584C38.3051 34.0029 39.1367 32.697 40.2365 31.7218C41.3347 30.7479 42.6154 30.1803 44.2681 29.6242L44.6221 29.5051Z" fill="#F9A012"/>
<path fill-rule="evenodd" clip-rule="evenodd" d="M47.0265 27.3274C48.6073 27.3274 50.2965 25.6518 50.2965 22.9986C50.2965 20.3454 48.6073 18.6697 47.0265 18.6697C45.4456 18.6697 43.7565 20.3454 43.7565 22.9986C43.7565 25.6518 45.4456 27.3274 47.0265 27.3274ZM47.0265 29.6588C50.0029 29.6588 52.4158 26.6769 52.4158 22.9986C52.4158 19.3202 50.0029 16.3383 47.0265 16.3383C44.0501 16.3383 41.6372 19.3202 41.6372 22.9986C41.6372 26.6769 44.0501 29.6588 47.0265 29.6588Z" fill="#F9A012"/>
<path fill-rule="evenodd" clip-rule="evenodd" d="M23.2191 29.7238L22.8748 29.873C21.8896 30.2999 21.2775 30.4497 20.7856 30.4464C20.3193 30.4432 19.862 30.3016 19.1859 29.9203L18.8766 29.7458L18.5335 29.8068C16.948 30.0885 15.6511 30.4391 14.5363 31.0266C13.397 31.6269 12.4977 32.4476 11.6645 33.5887C10.9349 34.5877 10.4901 35.7868 10.3318 37.0269C10.1044 38.8078 10.0924 40.8098 10.1836 44.1184L10.2028 44.8156L13.9308 46.8581L14.3193 46.0546L14.416 46.7528L15.0394 46.9741C16.9664 47.6584 18.5385 48.0657 20.0816 48.1651C21.6359 48.2653 23.1038 48.0497 24.8232 47.5649L24.297 45.3065C22.7224 45.7505 21.4811 45.9199 20.2056 45.8377C19.0674 45.7644 17.8575 45.488 16.3129 44.9705L15.4513 38.7481L13.0286 43.7593L12.2839 43.3512C12.2146 40.4753 12.2453 38.8015 12.4305 37.3512C12.5395 36.4976 12.8427 35.698 13.3167 35.0487C13.9767 34.1449 14.6334 33.5605 15.4519 33.1292C16.2322 32.718 17.2006 32.4239 18.5414 32.169C19.2639 32.5409 19.9701 32.7723 20.7725 32.7777C21.5681 32.7831 22.3759 32.5651 23.298 32.1907C24.6806 32.676 25.5583 33.1203 26.2748 33.7556C27.0476 34.4409 27.7179 35.4251 28.5699 37.177L30.4386 36.0771C29.5361 34.2216 28.7045 32.9157 27.6048 31.9405C26.5065 30.9666 25.2258 30.399 23.5731 29.8429L23.2191 29.7238Z" fill="#F9A012"/>
<path fill-rule="evenodd" clip-rule="evenodd" d="M20.8147 27.5461C19.2338 27.5461 17.5447 25.8705 17.5447 23.2173C17.5447 20.5641 19.2338 18.8884 20.8147 18.8884C22.3955 18.8884 24.0847 20.5641 24.0847 23.2173C24.0847 25.8705 22.3955 27.5461 20.8147 27.5461ZM20.8147 29.8775C17.8382 29.8775 15.4254 26.8956 15.4254 23.2173C15.4254 19.5389 17.8382 16.557 20.8147 16.557C23.7911 16.557 26.204 19.5389 26.204 23.2173C26.204 26.8956 23.7911 29.8775 20.8147 29.8775Z" fill="#F9A012"/>
<path fill-rule="evenodd" clip-rule="evenodd" d="M62.578 43.3483C63.5491 40.3999 64.0744 37.2499 64.0744 33.9774C64.0744 30.705 63.5491 27.5549 62.578 24.6066L65.4274 23.6681C66.497 26.9154 67.0744 30.3821 67.0744 33.9774C67.0744 37.5727 66.497 41.0394 65.4274 44.2868L62.578 43.3483ZM60.8361 20.4217L63.51 19.0615C60.3232 12.7967 55.1941 7.68639 48.9122 4.51536L47.5603 7.1935C53.2735 10.0774 57.939 14.7265 60.8361 20.4217ZM43.3707 5.46287L44.3027 2.61131C41.0558 1.55011 37.5907 0.977417 33.9975 0.977417C30.4043 0.977417 26.9392 1.55011 23.6923 2.61131L24.6243 5.46287C27.574 4.49881 30.7247 3.97742 33.9975 3.97742C37.2703 3.97742 40.421 4.49881 43.3707 5.46287ZM20.4347 7.19349L19.0828 4.51536C12.8009 7.68639 7.6718 12.7967 4.485 19.0615L7.15893 20.4217C10.056 14.7265 14.7215 10.0774 20.4347 7.19349ZM5.41698 24.6066C4.44589 27.5549 3.92059 30.705 3.92059 33.9774C3.92059 37.2499 4.44589 40.3999 5.41698 43.3483L2.56755 44.2868C1.49799 41.0394 0.920593 37.5727 0.920593 33.9774C0.920593 30.3821 1.49799 26.9154 2.56755 23.6681L5.41698 24.6066ZM7.15893 47.5331L4.485 48.8933C7.6718 55.1581 12.8009 60.2684 19.0828 63.4395L20.4347 60.7613C14.7215 57.8774 10.056 53.2283 7.15893 47.5331ZM24.6243 62.492L23.6923 65.3435C26.9392 66.4047 30.4043 66.9774 33.9975 66.9774C37.5907 66.9774 41.0557 66.4047 44.3027 65.3435L43.3707 62.492C40.421 63.456 37.2703 63.9774 33.9975 63.9774C30.7247 63.9774 27.574 63.456 24.6243 62.492ZM47.5603 60.7613L48.9122 63.4395C55.1941 60.2684 60.3232 55.1581 63.51 48.8933L60.8361 47.5331C57.939 53.2283 53.2735 57.8774 47.5603 60.7613Z" fill="#F9A012"/>
</svg>
