<svg width="67" height="67" viewBox="0 0 67 67" fill="none" xmlns="http://www.w3.org/2000/svg">
<path fill-rule="evenodd" clip-rule="evenodd" d="M66.7767 33.348C66.7767 51.5734 52.0021 66.348 33.7767 66.348C15.5513 66.348 0.776672 51.5734 0.776672 33.348C0.776672 15.1226 15.5513 0.348022 33.7767 0.348022C52.0021 0.348022 66.7767 15.1226 66.7767 33.348ZM33.7767 63.348C50.3452 63.348 63.7767 49.9166 63.7767 33.348C63.7767 16.7795 50.3452 3.34802 33.7767 3.34802C17.2081 3.34802 3.77667 16.7795 3.77667 33.348C3.77667 49.9166 17.2081 63.348 33.7767 63.348Z" fill="#F9A012"/>
<path fill-rule="evenodd" clip-rule="evenodd" d="M23.1254 29.9793L26.6906 28.0248L29.2922 24.1056C30.7051 21.9772 31.4587 19.4792 31.4587 16.9245V16.1791L31.8076 15.5204C32.7825 13.6797 34.6964 13.1948 35.9057 13.2017C37.0027 13.208 39.0291 13.6639 39.9141 15.6274C40.1017 15.9813 40.2729 16.3219 40.4285 16.6553C41.7942 19.5813 41.5796 22.7312 41.2086 25.2073H45.0764C46.5323 25.2073 48.3015 25.601 49.6967 26.4407C50.3974 26.8624 51.2652 27.5547 51.7893 28.6337C52.3843 29.859 52.3637 31.2362 51.7606 32.4783C51.6295 32.7484 51.476 33.0001 51.3057 33.2353C51.5284 33.9615 51.5613 34.7215 51.4166 35.4562C51.2707 36.1969 50.9662 36.8507 50.5599 37.4169C50.7396 38.0739 50.7769 38.7925 50.6201 39.557C50.4568 40.3533 50.1122 41.0385 49.6563 41.6183C49.8036 42.3034 49.7978 43.0383 49.5905 43.7968C49.0047 45.9404 47.1149 47.1365 45.2075 47.4538L44.963 47.4945H27.7569L26.1086 46.2206H23.1254V29.9793ZM27.1327 43.2206L28.781 44.4945H44.7152C45.7255 44.3264 46.3862 43.8103 46.6382 43.1802C46.9359 42.4357 46.6632 41.5319 45.7225 40.8549C46.6882 40.4746 47.3153 39.9066 47.5764 39.2895C47.6716 39.0645 47.7181 38.833 47.7147 38.6017C47.7053 37.9715 47.325 37.3428 46.5467 36.8513C47.5928 36.4095 48.2659 35.6997 48.4518 34.9708C48.487 34.833 48.5047 34.6944 48.5043 34.5569C48.5021 33.9046 48.0907 33.2751 47.1877 32.8478C48.1932 32.2491 48.7935 31.7209 49.0618 31.1681C49.1655 30.9547 49.2169 30.7503 49.2236 30.5558C49.274 29.1064 46.8448 28.2073 45.0764 28.2073H37.6639L38.0948 25.674C38.1212 25.5189 38.147 25.3633 38.172 25.2073C38.567 22.7442 38.7602 20.1741 37.7101 17.9242C37.631 17.7547 37.5455 17.5797 37.4529 17.3972C37.3757 17.2452 37.2935 17.088 37.206 16.9245C36.8383 15.974 34.9762 15.9475 34.4587 16.9245C34.4587 17.2845 34.4466 17.6437 34.4224 18.0013C34.4216 18.0132 34.4208 18.0251 34.42 18.037C34.2278 20.7905 33.3251 23.4547 31.7916 25.7648L28.781 30.3L26.1254 31.7559V43.2206H27.1327Z" fill="#F9A012"/>
<path fill-rule="evenodd" clip-rule="evenodd" d="M18.1782 28.6093C17.8752 28.6093 17.3289 29.2696 17.3289 29.6146V45.8669C17.3289 46.2119 17.9626 47.1176 18.2656 47.1176H23.5347C23.795 47.1176 24.0129 46.9112 24.0692 46.6343V29.6146C24.042 29.1196 23.9071 28.8763 23.5347 28.6064L18.1782 28.6093ZM22.0692 30.6072L19.3289 30.6087V45.1176H22.0692V30.6072Z" fill="#F9A012"/>
</svg>
