<svg width="67" height="67" viewBox="0 0 67 67" fill="none" xmlns="http://www.w3.org/2000/svg">
<path d="M46.0528 32.1544V35.869L42.3987 37.257L43.2878 39.7215L46.9419 38.3335C47.9468 37.9518 48.6139 36.9685 48.6139 35.869V32.1544H46.0528Z" fill="#F9A012"/>
<path fill-rule="evenodd" clip-rule="evenodd" d="M21.8873 33.1346V29.4949H18.5586C18.098 29.4949 17.6729 29.2411 17.4453 28.8302C17.2177 28.4192 17.2227 27.9146 17.4584 27.5085L24.2969 15.7283C24.5282 15.3298 24.9471 15.086 25.3991 15.0868C25.7632 15.0874 26.1053 15.2466 26.3449 15.5172H46.0679C46.2896 15.5172 46.4956 15.6349 46.6123 15.8283L53.8734 27.8623C54.1375 28.3 53.8307 28.8651 53.329 28.8651H51.627L51.6114 37.6459L53.4444 36.9795C53.9732 36.7873 54.6745 36.7326 55.3345 37.0875C55.8789 37.3802 56.3411 37.7869 56.6573 38.3814C56.955 38.9411 57.0662 39.5627 57.1102 40.181C57.1798 41.1581 56.6781 42.0082 55.9739 42.4799L41.7228 52.0254C41.3065 52.3042 40.8201 52.4527 40.3229 52.4527H23.7458C23.2725 52.4527 22.8293 52.321 22.4489 52.0913C22.3832 52.3825 22.1288 52.5996 21.8251 52.5996H15.6758C15.3222 52.5996 14.5826 51.6471 14.5826 51.2842V34.1919C14.5826 33.8291 15.2202 33.1346 15.5738 33.1346L21.8251 33.1316C21.8461 33.1316 21.8668 33.1326 21.8873 33.1346ZM24.4484 33.3922L24.4484 28.7892L28.2927 22.2045L32.0409 28.5487C32.157 28.7452 32.3646 28.8651 32.5885 28.8651H34.6952V36.7439H30.8636C29.5559 36.2213 28.9625 35.8106 28.0433 34.8434C28.0119 34.8104 27.9789 34.7791 27.9442 34.7496C27.3796 34.2688 26.7842 33.8841 26.0345 33.6488C25.5418 33.4942 25.0203 33.416 24.4484 33.3922ZM37.2563 28.8651V36.7923C37.5152 36.8442 37.7789 36.9412 38.0295 37.098C39.0304 37.7241 39.6853 38.55 39.9306 39.7127C40.0555 40.3049 40.0643 40.9504 40.0076 41.6391L40.5262 41.6755L49.0486 38.5775L49.0659 28.8651H37.2563ZM37.4274 40.2686C37.4957 40.5923 37.5009 41.033 37.4284 41.6911H32.9205C32.8938 41.6911 32.867 41.692 32.8403 41.6937C32.0611 41.7439 31.3874 41.8649 30.7191 42.148C30.0623 42.4263 29.4858 42.8299 28.8663 43.3334L30.4565 45.3934C31.0024 44.9497 31.3619 44.7189 31.6965 44.5771C32.0127 44.4431 32.3769 44.3593 32.962 44.319H38.5335C38.716 44.319 38.8907 44.2796 39.0492 44.2079C39.3991 44.2303 39.831 44.2607 40.326 44.2956L40.3273 44.2957L40.3508 44.2973C40.6999 44.3219 41.0511 44.2728 41.3817 44.1527L54.2475 39.4755C54.354 39.5462 54.3874 39.5992 54.4093 39.6404C54.4528 39.7222 54.5159 39.8987 54.5499 40.2954L40.3229 49.8248H23.7458V36.0169C24.4831 35.994 24.9433 36.0544 25.2854 36.1618C25.6065 36.2626 25.8954 36.427 26.26 36.7309C27.417 37.9389 28.319 38.5483 29.9449 39.197C30.2426 39.3158 30.554 39.3719 30.86 39.3719H36.7435C37.2146 39.677 37.3573 39.9363 37.4274 40.2686ZM28.8894 18.1451L33.6702 26.2372H49.8806L44.998 18.1451H28.8894ZM20.8119 26.867H22.5852L26.2869 20.5263L25.393 18.9752L20.8119 26.867ZM17.1437 49.9716V35.7595H19.9043V49.9716H17.1437Z" fill="#F9A012"/>
<path fill-rule="evenodd" clip-rule="evenodd" d="M66.6123 33.1186C67.0124 51.3396 52.5658 66.435 34.3448 66.8352C16.1238 67.2354 1.02835 52.7888 0.628173 34.5678C0.227999 16.3468 14.6746 1.25131 32.8956 0.851134C51.1166 0.45096 66.2121 14.8976 66.6123 33.1186ZM34.2789 63.8359C50.8435 63.4722 63.9768 49.749 63.613 33.1845C63.2492 16.6199 49.5261 3.48662 32.9615 3.85041C16.397 4.21421 3.26365 17.9373 3.62745 34.5019C3.99124 51.0664 17.7144 64.1997 34.2789 63.8359Z" fill="#F9A012"/>
</svg>
