<svg width="67" height="67" viewBox="0 0 67 67" fill="none" xmlns="http://www.w3.org/2000/svg">
<path fill-rule="evenodd" clip-rule="evenodd" d="M66.6123 32.5358C67.0124 50.7568 52.5658 65.8522 34.3448 66.2524C16.1238 66.6526 1.02835 52.2059 0.628173 33.9849C0.227999 15.7639 14.6746 0.668484 32.8956 0.26831C51.1166 -0.131865 66.2121 14.3148 66.6123 32.5358ZM34.2789 63.2531C50.8435 62.8893 63.9768 49.1662 63.613 32.6016C63.2492 16.0371 49.5261 2.90379 32.9615 3.26759C16.397 3.63138 3.26365 17.3545 3.62745 33.9191C3.99124 50.4836 17.7144 63.6169 34.2789 63.2531Z" fill="#F9A012"/>
<path fill-rule="evenodd" clip-rule="evenodd" d="M43.1921 47.9591C43.2833 44.65 43.2673 42.7374 43.0538 41.065C42.9201 40.0182 42.5461 39.0189 41.9443 38.1947C40.4511 36.1498 38.8321 35.3843 35.7324 34.8336C34.2184 35.6874 33.2291 35.725 31.1718 34.8336C29.077 35.2244 27.7069 35.8005 26.4183 36.9471C24.7906 38.3954 24.0535 40.7184 24.0042 43.0208C23.9681 44.7067 24.0479 46.0995 24.2037 47.9591L26.9854 49.3319L27.5283 47.4235L28.0692 49.7408C28.3916 49.8516 28.7019 49.9545 29.0019 50.0496C32.5528 51.175 34.6632 51.1992 38.2437 50.0237C38.5106 49.9361 38.7856 49.8418 39.07 49.7408L39.7253 47.4235L40.3838 49.7408L43.1921 47.9591ZM41.1247 44.5341L39.7203 39.5919L37.3786 47.8732C35.8178 48.3686 34.6707 48.5723 33.5768 48.568C32.4943 48.5638 31.3607 48.3559 29.8235 47.8826L27.7292 38.9108L26.1233 44.5559C26.1124 44.0723 26.1119 43.5884 26.1229 43.0757C26.1627 41.2174 26.7547 39.6463 27.7511 38.7597C28.5716 38.0297 29.451 37.5805 30.9785 37.2432C31.8845 37.5952 32.7643 37.8256 33.6689 37.8194C34.5413 37.8135 35.3066 37.5898 36.0268 37.2556C37.1521 37.4859 37.9246 37.74 38.5252 38.0565C39.1833 38.4032 39.7186 38.8695 40.292 39.6548C40.6384 40.1291 40.8707 40.729 40.955 41.3893C41.065 42.2503 41.1183 43.209 41.1247 44.5341Z" fill="#F9A012"/>
<path fill-rule="evenodd" clip-rule="evenodd" d="M33.6201 31.8594C35.201 31.8594 36.8901 30.1838 36.8901 27.5306C36.8901 24.8774 35.201 23.2017 33.6201 23.2017C32.0392 23.2017 30.3501 24.8774 30.3501 27.5306C30.3501 30.1838 32.0392 31.8594 33.6201 31.8594ZM33.6201 34.1908C36.5965 34.1908 39.0094 31.2089 39.0094 27.5306C39.0094 23.8522 36.5965 20.8703 33.6201 20.8703C30.6437 20.8703 28.2308 23.8522 28.2308 27.5306C28.2308 31.2089 30.6437 34.1908 33.6201 34.1908Z" fill="#F9A012"/>
<path fill-rule="evenodd" clip-rule="evenodd" d="M44.3217 28.788L44.6661 28.9372C45.6512 29.3641 46.2633 29.5139 46.7552 29.5106C47.2216 29.5074 47.6788 29.3658 48.3549 28.9845L48.6642 28.8101L49.0073 28.871C50.5928 29.1527 51.8897 29.5033 53.0045 30.0908C54.1438 30.6911 55.0432 31.5119 55.8764 32.6529C56.6059 33.652 57.0507 34.851 57.2091 36.0911C57.4365 37.8721 57.4484 39.8741 57.3573 43.1827L57.338 43.8798L53.6101 45.9223L53.2216 45.1188L53.1249 45.817L52.5014 46.0384C50.5745 46.7226 49.0023 47.1299 47.4592 47.2294C45.9049 47.3295 44.4371 47.1139 42.7177 46.6292L43.2438 44.3708C44.8185 44.8147 46.0597 44.9842 47.3353 44.902C48.4734 44.8286 49.6833 44.5522 51.2279 44.0347L52.0895 37.8123L54.5123 42.8235L55.257 42.4155C55.3263 39.5395 55.2956 37.8658 55.1104 36.4154C55.0014 35.5618 54.6982 34.7622 54.2241 34.113C53.5641 33.2091 52.9074 32.6247 52.0889 32.1934C51.3087 31.7822 50.3402 31.4881 48.9995 31.2332C48.2769 31.6051 47.5707 31.8365 46.7683 31.842C45.9728 31.8474 45.1649 31.6293 44.2429 31.255C42.8602 31.7403 41.9826 32.1845 41.2661 32.8198C40.4932 33.5052 39.823 34.4893 38.9709 36.2412L37.1023 35.1414C38.0047 33.2858 38.8363 31.9799 39.936 31.0047C41.0343 30.0308 42.315 29.4632 43.9677 28.9071L44.3217 28.788Z" fill="#F9A012"/>
<path fill-rule="evenodd" clip-rule="evenodd" d="M46.7261 26.6103C48.307 26.6103 49.9961 24.9347 49.9961 22.2815C49.9961 19.6283 48.307 17.9527 46.7261 17.9527C45.1452 17.9527 43.4561 19.6283 43.4561 22.2815C43.4561 24.9347 45.1452 26.6103 46.7261 26.6103ZM46.7261 28.9417C49.7025 28.9417 52.1154 25.9598 52.1154 22.2815C52.1154 18.6031 49.7025 15.6212 46.7261 15.6212C43.7497 15.6212 41.3368 18.6031 41.3368 22.2815C41.3368 25.9598 43.7497 28.9417 46.7261 28.9417Z" fill="#F9A012"/>
<path fill-rule="evenodd" clip-rule="evenodd" d="M22.9187 29.0067L22.5744 29.1559C21.5892 29.5828 20.9771 29.7326 20.4852 29.7293C20.0189 29.7261 19.5616 29.5845 18.8855 29.2032L18.5762 29.0288L18.2331 29.0897C16.6476 29.3714 15.3507 29.722 14.2359 30.3095C13.0966 30.9098 12.1973 31.7306 11.3641 32.8716C10.6345 33.8707 10.1897 35.0697 10.0314 36.3098C9.80394 38.0908 9.79198 40.0928 9.88316 43.4014L9.90238 44.0986L13.6304 46.1411L14.0189 45.3375L14.1155 46.0357L14.739 46.2571C16.6659 46.9413 18.2381 47.3487 19.7812 47.4481C21.3355 47.5482 22.8034 47.3326 24.5228 46.8479L23.9966 44.5895C22.422 45.0334 21.1807 45.2029 19.9052 45.1207C18.767 45.0473 17.5571 44.7709 16.0125 44.2534L15.1509 38.031L12.7282 43.0422L11.9835 42.6342C11.9142 39.7582 11.9449 38.0845 12.1301 36.6341C12.2391 35.7806 12.5422 34.9809 13.0163 34.3317C13.6763 33.4278 14.333 32.8434 15.1515 32.4121C15.9318 32.0009 16.9002 31.7068 18.241 31.4519C18.9635 31.8238 19.6697 32.0552 20.4721 32.0607C21.2677 32.0661 22.0755 31.8481 22.9976 31.4737C24.3802 31.959 25.2579 32.4032 25.9743 33.0386C26.7472 33.7239 27.4174 34.708 28.2695 36.4599L30.1382 35.3601C29.2357 33.5045 28.4041 32.1986 27.3044 31.2234C26.2061 30.2495 24.9254 29.682 23.2727 29.1258L22.9187 29.0067Z" fill="#F9A012"/>
<path fill-rule="evenodd" clip-rule="evenodd" d="M20.5143 26.829C18.9334 26.829 17.2443 25.1534 17.2443 22.5002C17.2443 19.847 18.9334 18.1714 20.5143 18.1714C22.0951 18.1714 23.7843 19.847 23.7843 22.5002C23.7843 25.1534 22.0951 26.829 20.5143 26.829ZM20.5143 29.1604C17.5378 29.1604 15.125 26.1785 15.125 22.5002C15.125 18.8218 17.5378 15.8399 20.5143 15.8399C23.4907 15.8399 25.9036 18.8218 25.9036 22.5002C25.9036 26.1785 23.4907 29.1604 20.5143 29.1604Z" fill="#F9A012"/>
</svg>
