<svg width="67" height="67" viewBox="0 0 67 67" fill="none" xmlns="http://www.w3.org/2000/svg">
<path fill-rule="evenodd" clip-rule="evenodd" d="M66.6204 33.8063C66.6204 52.0317 51.8458 66.8063 33.6204 66.8063C15.395 66.8063 0.620361 52.0317 0.620361 33.8063C0.620361 15.5809 15.395 0.806335 33.6204 0.806335C51.8458 0.806335 66.6204 15.5809 66.6204 33.8063ZM33.6204 63.8063C50.1889 63.8063 63.6204 50.3749 63.6204 33.8063C63.6204 17.2378 50.1889 3.80634 33.6204 3.80634C17.0518 3.80634 3.62036 17.2378 3.62036 33.8063C3.62036 50.3749 17.0518 63.8063 33.6204 63.8063Z" fill="#F9A012"/>
<path fill-rule="evenodd" clip-rule="evenodd" d="M43.0841 24.3334L45.2944 28.8527L50.258 29.5417L46.6448 32.9862L47.5368 37.9202L42.9983 35.557L43.7639 34.0866L45.304 34.8885L44.8545 32.4024L46.6282 30.7115L44.1927 30.3735L43.1122 28.1643L42.4017 29.6728L40.9019 28.9664L43.0841 24.3334Z" fill="#F9A012"/>
<path fill-rule="evenodd" clip-rule="evenodd" d="M24.1567 24.3334L21.9463 28.8527L16.9827 29.5417L20.5959 32.9862L19.7039 37.9202L24.2424 35.557L23.4768 34.0866L21.9367 34.8885L22.3862 32.4024L20.6125 30.7115L23.048 30.3735L24.1285 28.1643L24.839 29.6728L26.3388 28.9664L24.1567 24.3334Z" fill="#F9A012"/>
<path fill-rule="evenodd" clip-rule="evenodd" d="M33.6474 22.8548L37.2473 30.0793L45.2452 31.1716L39.411 36.8465L40.8146 44.7579L33.6613 41.0228L26.5225 44.7362L27.8572 36.8551L21.9737 31.1634L30.1219 30.0774L33.6474 22.8548ZM31.2219 31.6033L25.5889 32.3541L29.6376 36.2708L28.7135 41.7278L33.6628 39.1533L38.5933 41.7278L37.6251 36.2708L41.6518 32.3541L36.1545 31.6033L33.6628 26.6028L31.2219 31.6033Z" fill="#F9A012"/>
<path fill-rule="evenodd" clip-rule="evenodd" d="M44.8745 16.3704C43.1062 15.2191 41.2284 14.4019 38.7108 13.5109L39.264 11.9481C41.8348 12.8579 43.8523 13.7266 45.7791 14.981C47.7058 16.2354 49.5062 17.8522 51.677 20.2218L50.4546 21.3417C48.3375 19.0306 46.6429 17.5217 44.8745 16.3704Z" fill="#F9A012"/>
<path fill-rule="evenodd" clip-rule="evenodd" d="M56.0804 23.215C56.0804 25.1108 54.5432 26.6468 52.6481 26.6468C50.7529 26.6468 49.2158 25.1108 49.2158 23.215C49.2158 21.3192 50.7529 19.7833 52.6481 19.7833C54.5432 19.7833 56.0804 21.3192 56.0804 23.215ZM52.6481 24.9889C53.6281 24.9889 54.4225 24.1947 54.4225 23.215C54.4225 22.2353 53.6281 21.4411 52.6481 21.4411C51.6681 21.4411 50.8736 22.2353 50.8736 23.215C50.8736 24.1947 51.6681 24.9889 52.6481 24.9889Z" fill="#F9A012"/>
<path fill-rule="evenodd" clip-rule="evenodd" d="M43.3382 52.2862C45.2194 51.3304 46.866 50.1128 48.8964 48.378L49.9733 49.6385C47.8999 51.4099 46.1389 52.7228 44.0892 53.7642C42.0395 54.8056 39.7391 55.5565 36.6015 56.2516L36.2429 54.633C39.3029 53.9551 41.4569 53.242 43.3382 52.2862Z" fill="#F9A012"/>
<path fill-rule="evenodd" clip-rule="evenodd" d="M31.8077 58.5684C30.1659 57.6205 29.6043 55.5213 30.5518 53.8801C31.4994 52.2388 33.5982 51.6756 35.24 52.6235C36.8818 53.5714 37.4434 55.6706 36.4958 57.3118C35.5483 58.9531 33.4495 59.5163 31.8077 58.5684ZM31.9876 54.709C31.4976 55.5577 31.7882 56.6428 32.6366 57.1327C33.485 57.6225 34.5701 57.3316 35.0601 56.4829C35.5501 55.6342 35.2595 54.5491 34.411 54.0592C33.5626 53.5694 32.4776 53.8603 31.9876 54.709Z" fill="#F9A012"/>
<path fill-rule="evenodd" clip-rule="evenodd" d="M22.3662 51.4108C24.1345 52.5621 26.0123 53.3793 28.5299 54.2703L27.9767 55.8332C25.4059 54.9233 23.3884 54.0546 21.4616 52.8002C19.5349 51.5458 17.7345 49.9291 15.5637 47.5594L16.7861 46.4395C18.9033 48.7506 20.5978 50.2595 22.3662 51.4108Z" fill="#F9A012"/>
<path fill-rule="evenodd" clip-rule="evenodd" d="M11.1603 44.5662C11.1603 42.6704 12.6975 41.1344 14.5926 41.1344C16.4878 41.1344 18.0249 42.6704 18.0249 44.5662C18.0249 46.462 16.4878 47.998 14.5926 47.998C12.6975 47.998 11.1603 46.462 11.1603 44.5662ZM14.5926 42.7923C13.6126 42.7923 12.8182 43.5865 12.8182 44.5662C12.8182 45.5459 13.6126 46.3401 14.5926 46.3401C15.5726 46.3401 16.3671 45.5459 16.3671 44.5662C16.3671 43.5865 15.5726 42.7923 14.5926 42.7923Z" fill="#F9A012"/>
<path fill-rule="evenodd" clip-rule="evenodd" d="M12.8346 33.0296C12.7493 35.138 13.0071 37.1696 13.5286 39.7888L11.9027 40.1125C11.3702 37.4379 11.0852 35.2599 11.1781 32.9626C11.271 30.6654 11.7399 28.2915 12.6665 25.2143L14.2539 25.6923C13.3502 28.6934 12.9199 30.9212 12.8346 33.0296Z" fill="#F9A012"/>
<path fill-rule="evenodd" clip-rule="evenodd" d="M12.9874 19.8996C14.6167 18.9303 16.7227 19.4661 17.6916 21.0948C18.6606 22.7234 18.1265 24.8298 16.4973 25.7991C14.868 26.7684 12.762 26.2327 11.7931 24.604C10.8241 22.9753 11.3582 20.8689 12.9874 19.8996ZM16.2669 21.9424C15.7658 21.1002 14.6771 20.8235 13.8351 21.3244C12.9931 21.8253 12.7168 22.9142 13.2178 23.7564C13.7189 24.5986 14.8077 24.8753 15.6496 24.3744C16.4916 23.8734 16.7679 22.7846 16.2669 21.9424Z" fill="#F9A012"/>
<path fill-rule="evenodd" clip-rule="evenodd" d="M23.7874 15.4121C21.9146 16.3842 20.2788 17.6162 18.2635 19.3686L17.1757 18.1176C19.2335 16.3281 20.983 14.9999 23.0236 13.9406C25.0641 12.8814 27.3579 12.1105 30.4892 11.388L30.862 13.0034C27.808 13.708 25.6603 14.4398 23.7874 15.4121Z" fill="#F9A012"/>
<path fill-rule="evenodd" clip-rule="evenodd" d="M35.2627 9.02945C36.9127 9.96298 37.4926 12.0572 36.5594 13.7067C35.6262 15.3561 33.5324 15.9376 31.8824 15.0041C30.2324 14.0706 29.6525 11.9763 30.5857 10.3269C31.5189 8.67746 33.6127 8.09592 35.2627 9.02945ZM35.1165 12.8903C35.5991 12.0373 35.299 10.9548 34.4463 10.4724C33.5937 9.98994 32.5112 10.2903 32.0286 11.1433C31.5461 11.9962 31.8461 13.0787 32.6988 13.5612C33.5515 14.0436 34.6339 13.7432 35.1165 12.8903Z" fill="#F9A012"/>
<path fill-rule="evenodd" clip-rule="evenodd" d="M54.3151 34.816C54.4279 32.7089 54.1967 30.6742 53.7096 28.0484L55.3396 27.746C55.837 30.4273 56.0935 32.6088 55.9705 34.9047C55.8476 37.2004 55.3476 39.5681 54.3809 42.6328L52.7998 42.1341C53.7427 39.1451 54.2022 36.9231 54.3151 34.816Z" fill="#F9A012"/>
<path fill-rule="evenodd" clip-rule="evenodd" d="M53.9903 47.9429C52.3485 48.8908 50.2498 48.3275 49.3022 46.6863C48.3546 45.0451 48.9162 42.9458 50.558 41.9979C52.1998 41.05 54.2986 41.6133 55.2462 43.2545C56.1937 44.8958 55.6321 46.995 53.9903 47.9429ZM50.7379 45.8574C51.2279 46.7061 52.313 46.997 53.1614 46.5071C54.0099 46.0173 54.3004 44.9322 53.8104 44.0834C53.3204 43.2347 52.2354 42.9438 51.387 43.4337C50.5385 43.9235 50.2479 45.0086 50.7379 45.8574Z" fill="#F9A012"/>
</svg>
